<svg xmlns="http://www.w3.org/2000/svg" viewBox="0 0 64 64"><defs><style>.cls-1{fill:none;}.cls-2{fill:#9f63c6;}.cls-3{fill:#4b2048;}.cls-4{fill:#fff;}</style></defs><title>retail-day</title><g id="invisi-border"><rect class="cls-1" width="64" height="64"/></g><g id="icon"><rect class="cls-2" x="13" y="20" width="38" height="38"/><path class="cls-3" d="M51,60H13a2.0001,2.0001,0,0,1-2-2V20a2.0001,2.0001,0,0,1,2-2H51a2.0001,2.0001,0,0,1,2,2V58A2.0001,2.0001,0,0,1,51,60ZM15,56H49V22H15Z"/><path class="cls-4" d="M42,36H22a2,2,0,0,1,0-4H42a2,2,0,0,1,0,4Z"/><path class="cls-4" d="M39,44H25a2,2,0,0,1,0-4H39a2,2,0,0,1,0,4Z"/><path class="cls-3" d="M44,22a2.0001,2.0001,0,0,1-2-2V14a6,6,0,0,0-12,0v6a2,2,0,0,1-4,0V14a10,10,0,0,1,20,0v6A2.0001,2.0001,0,0,1,44,22Z"/><path class="cls-3" d="M36,22a2.0001,2.0001,0,0,1-2-2V14a6,6,0,0,0-12,0v6a2,2,0,0,1-4,0V14a10,10,0,0,1,20,0v6A2.0001,2.0001,0,0,1,36,22Z"/></g></svg>