<?xml version="1.0" encoding="UTF-8"?><svg id="a" xmlns="http://www.w3.org/2000/svg" viewBox="0 0 64 64"><path d="M29.83,34.61h0c1.47,.73,2.82,1.66,4,2.78v-7.23c-.96,1.78-2.34,3.3-4,4.45Z" fill="#fff"/><path d="M37.83,43.34c.39,1.01,.67,2.07,.85,3.16h3.15V28.5h-4v14.84Z" fill="#fff"/><rect x="45.83" y="28.5" width="4" height="18" fill="#fff"/><polygon points="53.83 50.5 51.83 50.5 43.83 50.5 38.9 50.5 38.9 54.5 53.83 54.5 53.83 50.5" fill="#8c5ec6"/><path d="M55.83,46.5h-2V28.5h2c1.1,0,2-.9,2-2s-.9-2-2-2h-2.12c-.93-8.33-7.55-14.96-15.88-15.88v-1.12c0-1.1-.9-2-2-2s-2,.9-2,2v1.12c-3.02,.34-5.81,1.42-8.2,3.07-.98-.24-2-.38-3.05-.38-7.05,0-12.79,5.74-12.79,12.79,0,4.34,2.18,8.18,5.5,10.5-5.4,2.64-9.12,8.1-9.12,14.42v7.5c0,1.1,.9,2,2,2H55.83c1.1,0,2-.9,2-2v-8c0-1.1-.9-2-2-2Z" fill="#481a54"/><path d="M17.83,54.5h-7.66v-5.5c0-5.04,3.17-9.37,7.66-11.19,1.24-.5,2.59-.8,4-.88,.23-.01,.47-.03,.7-.03,1.14,0,2.24,.16,3.3,.45,1.46,.4,2.81,1.05,4,1.91,1.73,1.24,3.12,2.91,4,4.85,.35,.76,.62,1.56,.8,2.39,.14,.65,.21,1.32,.24,2,0,.17,.03,.33,.03,.5v5.5H17.83Z" fill="#481a54"/><path d="M13.96,25.8c-.11-.55-.17-1.13-.17-1.71,0-4.56,3.49-8.31,7.94-8.74,.28-.03,.56-.04,.85-.04,.58,0,1.14,.06,1.68,.17,.75,.15,1.46,.39,2.13,.72,2.94,1.42,4.97,4.43,4.97,7.9,0,.14-.01,.28-.02,.41-.03,.69-.14,1.36-.32,2-.2,.71-.49,1.38-.86,2-.11,.18-.21,.36-.33,.54-.98,1.43-2.37,2.55-4,3.2-1.01,.4-2.1,.63-3.25,.63-.25,0-.5-.02-.75-.04-1.47-.12-2.83-.61-4-1.37-1.25-.81-2.29-1.92-3-3.24-.4-.75-.7-1.57-.87-2.43Z" fill="#481a54"/><path d="M35.83,12.5c7.04,0,12.88,5.22,13.86,12h-14.34c0-.14,.02-.27,.02-.41,0-4.25-2.09-8.01-5.29-10.33,1.76-.8,3.7-1.25,5.75-1.25Z" fill="#481a54"/><path d="M41.83,46.5h-3.15c-.17-1.1-.46-2.15-.85-3.16v-14.84h4v18Z" fill="#fff"/><path d="M29.83,34.61h0c1.66-1.15,3.04-2.67,4-4.45v7.23c-1.18-1.11-2.53-2.04-4-2.77Z" fill="#fff"/><rect x="45.83" y="28.5" width="4" height="18" fill="#fff"/><polygon points="38.9 50.5 43.83 50.5 51.83 50.5 53.83 50.5 53.83 54.5 38.9 54.5 38.9 50.5" fill="#8c5ec6"/><path d="M35.36,24.09c0,.14-.02,.28-.02,.41h14.34c-.97-6.78-6.82-12-13.86-12-2.05,0-4,.45-5.75,1.25,3.2,2.33,5.29,6.09,5.29,10.33Z" fill="#8c5ec6"/><path d="M34.9,50.26v-1.25c0-.17-.02-.34-.03-.5-.03-.68-.1-1.35-.24-2-.18-.83-.45-1.63-.8-2.39-.88-1.94-2.27-3.61-4-4.85-1.19-.86-2.54-1.51-4-1.91-1.05-.29-2.15-.45-3.3-.45-.24,0-.47,.02-.7,.03-1.41,.08-2.76,.38-4,.88-4.49,1.82-7.66,6.15-7.66,11.19v5.5h24.72v-4.24Z" fill="#8c5ec6"/><path d="M17.83,31.47c1.17,.76,2.53,1.24,4,1.37,.25,.02,.5,.04,.75,.04,1.15,0,2.24-.23,3.25-.63,1.63-.65,3.02-1.77,4-3.2,.12-.17,.23-.36,.33-.54,.36-.62,.65-1.29,.86-2,.18-.64,.29-1.31,.32-2,0-.14,.02-.27,.02-.41,0-3.48-2.04-6.48-4.97-7.9-.67-.32-1.38-.57-2.13-.72-.55-.11-1.11-.17-1.68-.17-.29,0-.57,.02-.85,.04-4.45,.43-7.94,4.18-7.94,8.74,0,.59,.06,1.16,.17,1.71,.17,.86,.47,1.68,.87,2.43,.71,1.32,1.74,2.43,3,3.24Z" fill="#8c5ec6"/></svg>