<?xml version="1.0" encoding="UTF-8"?><svg id="a" xmlns="http://www.w3.org/2000/svg" viewBox="0 0 64 64"><path d="M56.9,25.38c-.35-1.05-1.48-1.62-2.53-1.27l-7.37,2.46v-3.57c0-1.1-.9-2-2-2h-3.52c.96-1.43,1.52-3.15,1.52-5,0-4.97-4.03-9-9-9-2.83,0-5.35,1.31-7,3.35-1.65-2.04-4.17-3.35-7-3.35-4.97,0-9,4.03-9,9,0,1.85,.56,3.57,1.52,5h-3.52c-1.1,0-2,.9-2,2v18c0,1.1,.9,2,2,2h9.17l-4.05,11.33c-.08,.21-.12,.44-.12,.67,0,1.1,.89,2,2,2,.85,0,1.6-.52,1.89-1.32l4.53-12.68h9.18l4.52,12.67c.28,.8,1.04,1.33,1.88,1.33,.23,0,.47-.04,.69-.12,1.04-.38,1.58-1.52,1.2-2.56l-4.04-11.32h9.15c1.1,0,2-.9,2-2v-3.56l7.37,2.46c.2,.07,.42,.1,.63,.1,1.1,0,2-.9,2-2v-12c0-.21-.04-.42-.1-.62Zm-22.9-14.38c2.76,0,5,2.24,5,5s-2.24,5-5,5-5-2.24-5-5,2.24-5,5-5Zm-19,5c0-2.76,2.24-5,5-5s5,2.24,5,5-2.24,5-5,5-5-2.24-5-5Zm28,23h-9.85s-.09,0-.14,0H11v-14H43v14Zm10-3.77l-6-2v-2.46l6-2.01v6.46Z" fill="#481a54"/><path d="M43,39h-9.85s-.09,0-.14,0H11v-14H43v14Z" fill="#8c5ec6"/><circle cx="34" cy="16" r="5" fill="#fff"/><circle cx="20" cy="16" r="5" fill="#fff"/><polygon points="53 35.23 47 33.23 47 30.78 53 28.77 53 35.23" fill="#fff"/></svg>